<?xml version="1.0" encoding="utf-8"?>
<!--
	Generator: Adobe Illustrator 16.0.0, SVG Export Plug-In . SVG Version: 6.00 Build 0)
	Author: Miguel González Pérez (http://miguelos.me)
-->
<!DOCTYPE svg PUBLIC "-//W3C//DTD SVG 1.1//EN" "http://www.w3.org/Graphics/SVG/1.1/DTD/svg11.dtd">
<svg version="1.1" id="Layer_1" xmlns="http://www.w3.org/2000/svg" xmlns:xlink="http://www.w3.org/1999/xlink" x="0px" y="0px"
	 width="256px" height="256px" viewBox="0 0 256 256" enable-background="new 0 0 256 256" xml:space="preserve">
<g>
	<g id="XMLID_1_">
		<circle fill="#48483E" cx="128" cy="128" r="116"/>
		<g opacity="0.3">
			<path fill="#CFD0C2" d="M128,12c64.065,0,116,51.935,116,116s-51.935,116-116,116S12,192.065,12,128S63.935,12,128,12 M128,0
				C93.81,0,61.666,13.314,37.49,37.49S0,93.81,0,128s13.314,66.334,37.49,90.51S93.81,256,128,256s66.334-13.314,90.51-37.49
				S256,162.19,256,128s-13.314-66.334-37.49-90.51S162.19,0,128,0L128,0z"/>
		</g>
	</g>
	<linearGradient id="SVGID_1_" gradientUnits="userSpaceOnUse" x1="205" y1="215" x2="109.0006" y2="119.0006">
		<stop  offset="0" style="stop-color:#000000;stop-opacity:0.1"/>
		<stop  offset="1" style="stop-color:#000000;stop-opacity:0.5"/>
	</linearGradient>
	<path fill="url(#SVGID_1_)" d="M128,244c64,0,116-52,116-116l-44-48l-8,98l-148,6L128,244z"/>
	<path fill="#FE9720" d="M211.5,176.5c0,0,0-0.5,0,3.5s-3.5,4.5-3.5,4.5H48c0,0-4.5-0.5-4.5-4.5s0-3.5,0-3.5H64
		c-6.63,0-12.5-5.87-12.5-12.5V88c0-6.63,5.87-11.5,12.5-11.5h128c6.63,0,11.5,4.87,11.5,11.5v76c0,6.63-4.87,12.5-11.5,12.5H211.5z
		"/>
	<rect x="59.5" y="84.5" fill="#48483E" width="136" height="84"/>
	<rect x="64" y="88" fill="none" width="128" height="76.444"/>
	<text transform="matrix(1 0 0 1 64 105.2319)" fill="#6CC72C" font-family="'Monospace821BT-Bold'" font-size="24">&lt;/&gt;</text>
</g>
</svg>
